# xmcd
#
# Track frame offsets: 
#        150
#        25211
#        39281
#        60034
#        76471
#        79870
#        101673
#        117178
#        138633
#        155566
#        172064
#        192478
#        214134
#        225156
#
# Disc length: 3350 seconds
#
# Revision: 0
# Processed by: cddbd v1.5.2PL0 Copyright (c) Steve Scherf et al.
# Submitted via: ExactAudioCopy v1.3
#
DISCID=b10d140e
DTITLE=Jack De Keyzer - Down In The Groove
DYEAR=1999
DGENRE=Electric Blues
TTITLE0=Down In The Groove (Pt. 1)
TTITLE1=Gambler's Blues
TTITLE2=High On Your Love
TTITLE3=Nasty Swing
TTITLE4=Love Is Right (Intro)
TTITLE5=When Love Is Right
TTITLE6=I Need A Break
TTITLE7=Touch Of The Blues
TTITLE8=I Wanna Rock
TTITLE9=Party
TTITLE10=Skid Row
TTITLE11=Ride With Me
TTITLE12=Ain't No Stopping
TTITLE13=Groove (Pt. 2)
EXTD=
EXTT0=
EXTT1=
EXTT2=
EXTT3=
EXTT4=
EXTT5=
EXTT6=
EXTT7=
EXTT8=
EXTT9=
EXTT10=
EXTT11=
EXTT12=
EXTT13=
PLAYORDER=
